# xmcd CD database file
#
# Track frame offsets:
#	150
#	53431
#	82087
#	122586
#	143756
#	186261
#
# Disc length: 4009 seconds
#
# Revision: 0
# Processed by: cddbd v1.5.1PL2 Copyright (c) Steve Scherf et al.
# Submitted via: CDex 1.51
#
DISCID=4a0fa706
DTITLE=FC01・F&C - ドラマCD Canvas 2〜ファーストKISSは、なに色？〜
DYEAR=2006
DGENRE=Game
TTITLE0=TRACK01 「キスしたこと・・・・ある？」
TTITLE1=TRACK02 「先生に相談したいことがあって・・・・」
TTITLE2=TRACK03 「藤浪さんが告白する相手って・・・・」
TTITLE3=TRACK04 「アンタ、どこまで本気で言ってんの？」
TTITLE4=TRACK05 「余計に気になってしまいますわ」
TTITLE5=キャストトーク
EXTD=YEAR: 2006
EXTT0=
EXTT1=
EXTT2=
EXTT3=
EXTT4=
EXTT5=
PLAYORDER=
